<?xml version="1.0" encoding="UTF-8"?>
<!DOCTYPE svg PUBLIC "-//W3C//DTD SVG 1.1//EN" "http://www.w3.org/Graphics/SVG/1.1/DTD/svg11.dtd">
<svg version="1.1" xmlns="http://www.w3.org/2000/svg" xmlns:xlink="http://www.w3.org/1999/xlink" x="0px" y="0px" width="612" height="792" viewBox="0, 0, 612, 792">
  <g id="Layer 1">
    <path d="M395.982,476.29 L215.982,476.29 L215.982,295.79 L395.982,295.79 z" fill="#8FD1E9"/>
    <path d="M308.098,408.182 C308.165,408.098 308.235,408.011 308.296,407.935 C308.229,408.018 308.164,408.1 308.098,408.182" fill="#15A748"/>
    <path d="M308.296,407.935 C308.399,407.805 308.503,407.675 308.603,407.551 C308.51,407.667 308.408,407.793 308.296,407.935" fill="#15A748"/>
    <path d="M307.791,408.564 C307.889,408.443 307.991,408.314 308.098,408.182 C308.003,408.302 307.899,408.43 307.791,408.564" fill="#15A748"/>
    <path d="M307.173,409.339 C307.173,409.339 307.191,409.315 307.227,409.272 C307.207,409.296 307.191,409.315 307.173,409.339" fill="#15A748"/>
    <path d="M307.227,409.272 C307.434,409.013 307.619,408.78 307.791,408.564 C307.536,408.885 307.321,409.152 307.227,409.272" fill="#15A748"/>
    <path d="M308.603,407.551 C308.716,407.408 308.813,407.288 308.898,407.181 C308.807,407.295 308.707,407.419 308.603,407.551" fill="#15A748"/>
    <path d="M309.325,406.647 C309.354,406.61 309.354,406.61 309.325,406.647" fill="#15A748"/>
    <path d="M377.32,370.536 C367.753,327.109 318.008,301.615 279.214,310.353 C241.785,318.783 227.683,358.59 231.973,381.611 C236.636,406.628 262.164,425.493 287.134,420.577 C295.151,419.001 302.433,415.265 307.173,409.339 L307.072,409.182 C311.793,403.329 313.99,395.509 312.424,387.555 C312.27,386.766 312.074,385.995 311.854,385.238 C314.717,387.973 317.874,390.976 322.395,394.387 C342.743,409.744 349.307,412.02 355.186,413.41 C363.456,415.368 371.166,414.343 377.062,410.634 C380.553,408.436 382.867,395.711 377.32,370.536" fill="#15A748"/>
    <path d="M308.898,407.181 C308.957,407.106 309.012,407.039 309.063,406.976 C309.015,407.035 308.96,407.104 308.898,407.181" fill="#15A748"/>
    <path d="M309.063,406.976 C309.206,406.797 309.29,406.691 309.325,406.647 C309.283,406.699 309.188,406.818 309.063,406.976" fill="#15A748"/>
    <path d="M290.502,383.258 C291.434,382.168 291.542,383.98 292.179,385.189 C292.382,385.419 292.583,385.651 292.785,385.883 C292.865,386.222 292.944,386.563 293.025,386.902 C293.215,387.041 293.406,387.18 293.597,387.319 C293.718,387.774 293.839,388.229 293.958,388.685 C294.238,388.894 294.518,389.104 294.798,389.313 C295.028,389.589 295.051,390.224 295.153,390.64 C295.818,390.697 296.482,390.753 297.146,390.81 C297.471,391.067 297.798,391.326 298.123,391.582 C298.471,391.689 298.819,391.795 299.167,391.903 C299.368,392.362 299.57,392.822 299.772,393.282 C300.015,393.554 300.506,393.53 300.725,393.855 C300.821,394.112 300.918,394.37 301.016,394.626 C301.63,395.742 303.185,397.938 304.21,398.522 C304.72,398.811 305.459,398.685 306.063,398.868 C306.415,399.122 306.767,399.376 307.118,399.631 C307.69,399.871 308.777,399.544 309.34,399.693 C309.771,399.807 310.327,399.968 310.618,400.269 C310.77,400.439 310.925,400.608 311.078,400.78 C311.61,401.061 311.066,400.589 311.544,400.91 C311.556,401.014 311.365,401.709 311.381,401.814 C310.548,402.638 311.819,403.168 310.323,402.922 C310.007,402.864 309.69,402.81 309.378,402.752 C309.04,402.572 308.902,402.144 308.523,402.003 C308.073,402.056 307.624,402.109 307.174,402.163 C306.745,402.033 306.566,401.43 306.214,401.186 C304.576,401.819 304.698,401.001 303.779,400.346 C303.062,399.831 302.206,399.557 301.597,398.908 C301.037,398.31 300.811,397.401 300.294,396.724 C299.99,396.411 299.685,396.098 299.38,395.785 C299.153,395.376 299.176,394.752 298.939,394.426 C296.989,394.374 297.945,393.851 297.106,392.869 C296.607,392.284 295.262,392.301 294.316,392.43 C294.229,392.633 294.147,392.726 294.143,393.013 C294.44,393.26 294.738,393.507 295.034,393.755 C295.326,394.177 295.616,394.6 295.907,395.022 C296.194,395.177 296.481,395.332 296.768,395.486 C297.05,395.95 297.332,396.414 297.614,396.876 C297.918,397.068 297.227,397.173 297.532,397.368 C297.822,397.789 298.114,398.213 298.405,398.635 C298.706,398.801 298.011,398.88 298.313,399.046 C298.441,399.339 299.479,400.717 299.606,401.011 C299.932,401.557 301.052,403.825 301.582,404.141 C302.311,404.578 302.424,405.26 303.362,405.44 C304.31,405.621 304.915,406.43 305.769,406.729 C306.385,406.946 307.682,407.197 308.111,407.635 C307.92,408.18 307.058,409.516 306.659,409.893 C306.141,409.831 305.134,408.896 304.618,408.835 C303.585,408.344 304.509,407.664 302.803,407.881 C302.244,407.306 301.152,406.935 300.331,406.722 C299.992,406.634 299.7,405.722 299.432,405.557 C299.047,405.135 298.749,403.711 298.364,403.288 C297.745,402.928 297.927,402.016 297.45,401.484 C297.016,400.759 296.581,400.029 296.146,399.302 C295.573,398.727 295.481,398.835 294.915,398.239 C294.368,397.664 294.237,396.689 293.802,395.954 C293.523,395.484 292.898,395.389 292.634,394.922 C291.823,393.496 293.597,392.662 293.108,391.403 C292.826,390.832 292.545,390.26 292.264,389.689 C292.197,389.348 292.13,389.007 292.063,388.666 C291.788,388.269 291.514,387.871 291.239,387.473 C291.127,386.75 291.016,386.023 290.904,385.298 C290.687,384.563 290.243,384.037 290.502,383.258" fill="#FFFFFE"/>
    <path d="M379.494,393.277 C378.453,394.487 377.416,395.698 376.375,396.908 C375.549,397.531 374.72,398.158 373.894,398.783 C373.121,399.661 372.794,400.938 371.766,401.647 C370.278,402.239 368.791,402.831 367.305,403.422 C365.717,404.353 364.312,406.168 361.569,406.182 C358.647,406.198 356.9,404.965 354.61,404.373 C354.148,403.979 353.553,403.876 353.309,403.16 C353.871,402.968 354.432,402.776 354.99,402.585 C354.996,402.339 355.003,402.093 355.008,401.848 C354.395,401.311 349.541,397.951 349.814,397 C350.082,396.066 352.24,396.016 353.003,396.208 C354.244,396.589 355.49,396.969 356.732,397.351 C358.588,397.442 360.911,395.863 362.592,395.217 C364.161,394.617 365.128,395.546 366.688,394.902 C371.262,393.01 375.375,389.988 376.882,386.208 C377.529,385.51 378.182,384.81 378.832,384.113 C379.555,383.135 379.478,381.58 379.706,380.27 L378.956,379.766 C378.184,380.292 378.125,380.898 377.585,381.503 C376.357,382.453 375.131,383.401 373.904,384.348 C372.699,384.993 371.494,385.638 370.29,386.284 C369.529,386.84 368.77,387.398 368.011,387.955 C366.97,388.187 365.928,388.419 364.886,388.652 C360.602,390.658 357.967,393.65 351.566,393.067 C351.287,393.382 351.204,393.676 351.125,394.132 C346.802,395.909 342.211,393.753 339.096,392.667 C337.118,391.979 334.949,391.142 332.731,390.986 C330.053,391.187 327.374,391.388 324.698,391.589 C323.18,391.446 322.665,390.145 320.854,390.257 C319.689,389.242 318.332,388.084 316.84,386.857 C317.414,386.744 317.987,386.631 318.562,386.518 C320.368,386.708 321.119,387.856 322.299,385.62 C323.923,385.414 324.934,386.056 326.456,386.024 C327.812,385.997 328.432,385.158 329.236,384.826 C330.51,384.296 330.541,384.925 331.512,383.969 C332.907,383.762 333.628,384.582 334.822,384.623 C335.548,384.647 335.866,384.175 336.252,384.014 C336.883,384.053 337.517,384.092 338.148,384.13 C339.79,384.14 340.308,382.621 342.029,382.714 C344.831,382.868 347.037,384.696 349.694,385.201 C351.119,385.472 351.854,384.362 353.1,384.286 C354.257,384.22 355.411,384.156 356.568,384.092 L359.254,383.237 C360.496,382.368 361.74,381.498 362.981,380.627 C364.605,379.179 365.146,377.097 366.729,375.65 C367.64,375.473 368.242,375.903 368.61,376.503 C373.65,377.12 374.887,368.684 375.14,364.944 C375.24,363.449 373.932,359.056 372.82,358.96 C372.57,360.313 372.32,361.667 372.07,363.022 C371.785,363.625 370.907,363.953 370.765,364.664 C370.637,365.292 371.254,365.818 371.04,366.486 C370.611,367.83 369.187,368.638 368.896,370.087 C368.849,370.124 368.802,370.16 368.756,370.196 C367.408,368.823 367.282,364.312 367.961,362.851 C368.46,362.21 368.96,361.569 369.456,360.926 C370.073,359.487 369.367,357.411 369.379,355.561 C369.527,354.526 369.678,353.491 369.827,352.456 C369.853,350.47 366.644,346.314 365.581,345.79 C364.394,346.862 365.416,349.943 365.279,351.719 C365.158,353.303 365.32,356.726 364.93,358.229 C364.731,358.458 364.533,358.688 364.332,358.918 C364.448,359.221 364.559,359.526 364.674,359.831 C364.522,360.43 364.369,361.032 364.215,361.632 C364.244,362.382 364.953,363.113 364.835,363.957 C364.496,365.137 364.157,366.319 363.82,367.499 C363.99,368.363 364.161,369.225 364.329,370.089 C363.769,373.264 359.672,374.75 357.045,376.578 C355.773,377.463 354.439,378.956 353.6,380.192 C352.379,380.362 351.44,379.863 350.367,379.93 C349.771,380.211 349.174,380.493 348.577,380.773 C346.799,381.705 345.25,380.688 344.266,379.583 C341.336,376.297 346.329,374.819 348.985,375.392 C349.952,374.465 350.508,373.209 351.849,372.545 C353.282,371.837 355.174,371.833 356.169,370.879 C357.091,369.997 357.315,368.667 357.874,367.528 C358.307,366.645 359.328,366.21 359.999,365.479 C361.004,364.379 361.135,362.644 361.596,361.169 C362.016,359.824 364.19,356.04 361.93,354.581 C361.895,352.895 363.052,352.052 363.182,350.583 C363.044,349.469 362.906,348.355 362.766,347.241 C362.766,345.77 363.499,341.925 362.536,340.274 C361.856,339.566 361.173,338.858 360.489,338.15 C359.894,337.479 359.302,336.808 358.707,336.136 C358.602,336.156 358.498,336.177 358.391,336.198 C357.408,338.759 358.004,341.366 358.145,344.888 C358.184,345.813 358.838,346.374 358.813,347.041 C358.713,347.36 358.612,347.678 358.512,347.997 C358.624,348.275 358.732,348.551 358.84,348.829 C358.641,349.195 358.44,349.56 358.241,349.925 C358.399,350.737 358.561,351.549 358.721,352.359 C358.769,353.708 358.815,355.058 358.865,356.407 C358.463,358.659 357.076,361.525 355.424,362.955 C354.621,363.439 353.82,363.923 353.02,364.407 C352.303,365.027 351.907,366.039 350.989,366.519 C348.907,367.612 345.794,367.575 344.016,368.789 C343.197,369.348 343.114,370.367 342.503,371.042 C341.22,371.975 339.934,372.908 338.65,373.839 C337.618,375.076 336.582,376.312 335.549,377.548 C334.799,377.75 334.053,377.953 333.303,378.154 C330.94,379.176 328.14,380.75 325.232,380.232 C324.86,380.822 324.486,381.412 324.112,382 C323.228,382.68 322.309,381.737 321.415,381.961 C320.604,382.257 319.793,382.553 318.981,382.849 C317.178,383.509 315.237,383.272 313.628,383.414 C313.521,383.621 313.412,383.828 313.306,384.035 C312.206,383.183 311.078,382.333 309.936,381.51 C309.483,381.185 309.044,380.841 308.611,380.488 C308.864,380.514 309.121,380.524 309.386,380.498 C309.731,380.017 310.424,379.955 310.91,379.544 C311.221,378.914 311.532,378.281 311.842,377.649 C313.125,377.397 314.406,377.144 315.688,376.892 C316.364,376.596 317.04,376.299 317.715,376.004 C318.118,375.301 318.133,374.464 318.679,373.858 C320.115,372.26 322.725,372.005 324.744,370.708 C325.798,369.847 326.853,368.988 327.904,368.128 C329.952,367.888 331.998,367.649 334.041,367.409 C335.356,366.903 336.27,366.143 337.891,365.836 C338.829,363.464 338.562,362.986 341.136,361.61 C342.22,361.458 342.133,362.435 342.904,362.729 C344.103,363.185 346.383,362.744 347.757,362.101 C350.52,360.802 349.598,359.496 351.049,357.702 C352.149,356.337 353.669,355.006 354.261,353.318 C354.603,352.348 353.87,351.078 354.02,350.023 C354.533,348.346 355.044,346.667 355.557,344.992 C355.742,343.992 355.082,342.607 355.19,341.476 C355.273,340.623 356.037,340.201 356.265,339.471 L357.049,333.934 C356.782,333.959 356.516,333.986 356.25,334.01 C355.599,333.187 354.948,332.365 354.295,331.542 C353.637,330.827 352.619,330.442 352.169,329.433 C351.896,329.432 351.624,329.431 351.353,329.43 C351.34,330.058 351.328,330.685 351.314,331.313 C351.152,331.589 350.989,331.867 350.826,332.142 C350.945,332.473 351.064,332.802 351.184,333.132 C351.057,333.864 350.928,334.596 350.802,335.328 C350.956,336.112 351.11,336.898 351.265,337.682 C350.986,338.199 350.707,338.716 350.428,339.233 C350.467,340.122 350.507,341.012 350.547,341.901 C350.402,343.804 350.262,345.707 350.121,347.611 C349.742,348.446 349.361,349.282 348.982,350.117 C348.87,350.792 348.761,351.466 348.648,352.139 C348.14,352.593 347.631,353.047 347.121,353.5 C346.287,354.425 346.474,356.311 345.275,356.962 C344.652,357.112 344.029,357.262 343.407,357.412 C342.581,357.72 341.633,358.267 340.629,358.204 C340.586,358.13 340.544,358.057 340.503,357.984 C341.148,356.618 342.369,355.631 343.04,354.304 C344.14,352.128 344.606,349.616 345.492,347.299 C346.257,345.302 347.699,343.556 348.161,341.392 C348.536,339.642 347.873,337.484 347.975,335.476 C348.04,334.25 348.698,333.231 348.787,332.137 C348.669,331.263 348.552,330.389 348.434,329.515 C348.507,328.632 348.574,327.749 348.647,326.865 C347.555,325.81 346.052,325.147 345.015,324.155 C344.59,323.749 344.489,323.23 343.965,322.975 C343.048,323.993 343.67,325.922 343.544,327.46 C343.257,329.583 342.967,331.707 342.679,333.828 C342.952,335.486 343.223,337.146 343.494,338.803 C343.479,342.526 341.874,347.891 340.398,350.829 C339.69,352.242 338.217,353.272 337.673,354.79 C337.602,356.218 337.528,357.646 337.456,359.073 C337.135,359.85 334.652,362.878 333.883,363.282 C333.098,363.437 332.312,363.59 331.527,363.746 C330.331,364.292 328.769,365.283 327.007,364.798 C327.762,361.94 329.799,360.077 331.702,358.003 C332.262,357.404 332.824,356.805 333.386,356.204 C333.448,354.998 333.508,353.789 333.569,352.582 C333.883,352.383 334.198,352.185 334.512,351.988 L334.86,350.86 C335.27,350.452 335.678,350.046 336.088,349.639 C336.641,348.579 337.194,347.519 337.744,346.459 C338.619,344.504 338.586,342.099 339.24,339.967 C339.618,339.404 339.995,338.841 340.374,338.277 C340.076,336.76 339.777,335.243 339.479,333.724 C339.69,332.731 339.902,331.738 340.114,330.746 C339.77,329.128 339.424,327.511 339.078,325.895 C339.061,324.142 339.133,322.229 338.782,320.245 C337.271,318.87 334.65,317.8 332.514,317.402 C330.881,319.283 334.044,323.751 334.086,326.632 C333.886,327.677 333.684,328.723 333.482,329.769 C333.729,330.617 333.978,331.464 334.227,332.312 C334.032,332.704 333.836,333.095 333.644,333.487 C333.854,334.423 334.065,335.361 334.277,336.297 C334.052,336.804 333.824,337.311 333.599,337.817 C333.662,338.837 333.729,339.858 333.793,340.877 C333.52,341.85 332.412,342.583 331.84,343.382 C331.36,344.051 331.553,344.828 331.221,345.624 C330.786,346.036 330.35,346.447 329.915,346.859 C329.794,347.345 329.67,347.831 329.549,348.318 C329.053,349.502 327.607,350.167 327.14,351.4 C326.418,353.306 327.145,356.013 326.665,358.099 C326.346,359.483 325.015,360.358 324.411,361.559 C323.548,363.278 323.253,365.439 321.945,366.854 C320.883,367.797 319.819,368.742 318.754,369.685 C317.8,370.21 316.633,370.378 315.927,371.057 C315.095,371.854 314.864,373.215 313.878,373.907 C311.815,375.353 309.758,373.908 309.022,376.575 C307.6,376.754 306.597,377.222 305.566,377.662 C305.543,377.702 305.52,377.741 305.497,377.781 C304.183,376.623 302.861,375.517 301.428,374.669 C302.266,373.947 304.127,372.558 304.437,372.181 C305.635,371.781 307.053,369.149 308.25,368.75 C309.507,367.639 310.85,368.208 311.445,366.645 C311.811,365.689 314.486,364.538 314.796,363.604 C314.779,363.118 314.769,362.632 314.753,362.145 C314.982,361.757 315.586,361.683 315.9,361.35 C316.452,360.765 315.981,359.51 316.566,358.934 L319.49,357.217 C320.565,356.327 321.64,355.435 322.713,354.543 C322.64,353.607 322.563,352.671 322.489,351.735 C322.795,350.111 324.928,349.301 325.558,347.869 C325.934,346.463 326.311,345.057 326.687,343.652 C327.344,342.571 327.004,341.403 327.658,340.323 C328.979,337.005 329.559,334.07 329.481,329.692 C329.227,327.568 328.971,325.443 328.715,323.319 C328.683,321.497 328.644,317.231 327.736,315.44 C327.36,314.976 324.49,313.76 323.654,313.347 C323.099,312.936 322.542,312.524 321.986,312.112 C321.19,313.219 319.92,317.315 320.711,319.102 C320.963,319.671 321.639,320.268 321.678,321.112 C321.574,322.247 321.474,323.382 321.37,324.516 C321.799,325.872 322.229,327.229 322.66,328.584 C322.461,329.791 322.266,330.999 322.069,332.206 C322.32,333.216 322.576,334.226 322.828,335.236 C322.453,336.37 322.078,337.503 321.703,338.638 C321.781,339.546 321.574,340.828 321.373,341.926 C320.989,342.871 320.604,343.816 320.22,344.761 C320.232,345.249 320.248,345.735 320.262,346.222 C319.938,347.208 319.615,348.197 319.295,349.184 C318.503,350.127 317.71,351.073 316.918,352.017 C316.702,352.575 316.485,353.134 316.27,353.693 C315.211,354.838 313.05,355.277 312.369,356.663 C312.253,357.175 312.136,357.686 312.019,358.199 C311.432,358.94 310.845,359.68 310.256,360.422 C310.152,361.284 310.052,362.147 309.948,363.009 C309.621,363.47 306.026,366.061 304.761,367.132 C304.767,367.107 304.777,367.077 304.782,367.053 C304.909,365.81 304.95,365.417 305.089,364.058 C305.406,363.044 305.724,362.03 306.04,361.017 C305.784,359.165 305.528,357.313 305.272,355.46 C305.232,353.99 306.398,349.963 307.19,349.049 C308.607,348.52 310.179,349.849 311.475,348.859 C311.699,348.488 311.927,348.118 312.152,347.748 C312.602,347.549 313.052,347.351 313.503,347.155 C314.483,346.331 315.615,342.32 315.766,340.839 C315.721,340.06 315.678,339.28 315.632,338.5 C315.85,335.094 317.39,335.227 315.324,331.141 C315.713,330.089 315.885,329.294 315.54,327.675 C315.415,327.183 315.29,326.691 315.166,326.199 C315.627,324.532 316.088,322.865 316.545,321.199 C316.647,319.906 315.57,318.583 315.603,317.225 C315.654,314.907 317.59,313.52 316.595,310.67 C314.489,309.995 312.657,309.04 310.128,309.292 C310.161,310.447 309.89,310.644 310.224,311.436 C310.573,312.275 310.864,312.583 310.791,313.075 C310.981,313.635 311.174,314.195 311.365,314.754 C311.338,315.303 311.048,318.842 311.02,319.391 C309.516,318.956 309.328,314.774 308.475,313.329 C307.803,312.672 307.129,312.017 306.457,311.361 C306.286,310.77 306.115,310.178 305.944,309.587 C305.663,309.262 305.382,308.937 305.1,308.612 C304.095,308.434 301.856,308.366 300.832,308.881 C300.803,311.244 301.838,312.068 302.623,313.421 C303.498,314.931 302.802,316.327 303.527,318.011 C304.109,319.363 304.653,319.438 305.535,320.349 C306.363,321.204 306.139,322.538 306.733,323.946 C307.586,325.245 308.44,326.544 309.294,327.844 C309.749,328.935 309.227,329.57 309.428,330.59 C309.736,331.752 310.048,332.915 310.357,334.076 C310.398,337.503 308.869,339.815 307.854,342.478 C306.939,344.871 306.541,347.07 303.381,347.924 C301.757,346.122 302.299,344.007 302.725,342.102 C303.481,338.707 302.495,334.943 302.631,331.28 C302.709,329.18 301.519,327.469 300.937,325.987 C300.872,324.967 300.807,323.948 300.742,322.928 C300.092,321.833 299.442,320.737 298.791,319.642 C298.162,318.163 298.533,316.93 297.656,315.952 C296.519,315.143 295.381,314.334 294.243,313.525 C293.001,312.233 293.747,309.758 291.855,309.267 C291.685,309.196 291.259,309.546 291.259,309.546 C290.151,309.439 291.034,309.505 289.925,309.397 C287.206,309.311 285.186,308.916 282.188,309.655 C281.895,314.201 283.966,313.378 285.763,315.799 C286.205,316.799 286.646,317.8 287.087,318.8 C288.091,319.999 289.858,320.493 290.796,321.902 C291.056,322.667 291.314,323.431 291.574,324.196 C292.361,326.117 292.683,328.559 294.259,329.335 C294.47,330.409 294.682,331.482 294.893,332.555 C295.243,333.225 296.36,333.58 296.314,334.802 C296.155,335.241 295.997,335.68 295.839,336.119 C295.815,337.021 296.439,337.411 296.084,338.191 C295.612,339.221 294.481,339.833 294.38,341.134 C294.291,342.287 295.19,342.83 295.518,343.602 C295.569,344.134 295.619,344.668 295.669,345.202 C296.146,345.602 296.837,345.43 297.331,345.772 C298.546,346.611 298.042,348.591 300.352,348.276 C300.625,350.712 301.567,349.956 302.303,351.561 C302.664,352.515 301.62,354.339 301.617,355.528 C301.612,356.853 302.729,357.564 302.735,359.14 C302.571,359.96 302.407,360.782 302.241,361.602 C302.187,363.051 303.021,364.764 302.699,365.997 C302.431,366.293 302.163,366.591 301.897,366.888 C301.701,367.485 302.125,368.167 301.922,368.676 C301.718,369.016 301.512,369.356 301.307,369.695 C301.269,370.192 301.231,370.688 301.192,371.185 C300.831,372.25 298.884,372.054 298.047,372.759 C296.98,372.003 296.044,371.186 295.135,370.545 C295.4,369.582 295.666,368.618 295.933,367.655 C296.42,366.961 296.909,366.267 297.398,365.573 C297.395,364.594 297.393,363.617 297.39,362.638 C297.627,362.048 297.865,361.458 298.102,360.867 C297.912,359.627 297.722,358.387 297.532,357.147 C297.728,356.484 297.923,355.82 298.119,355.157 C298.276,354.331 297.67,353.8 297.686,352.958 C297.697,352.4 297.959,352.038 297.849,351.296 C297.044,350.939 296.239,350.581 295.435,350.221 C293.325,348.244 295.081,346.177 291.496,345.536 C290.836,344.132 290.186,342.867 288.979,342.28 C288.836,341.601 288.795,341.033 288.969,340.569 C289.645,338.769 293.315,338.516 293.439,335.939 C293.372,335.599 293.305,335.259 293.238,334.918 C292.79,334.435 292.341,333.954 291.894,333.471 C291.178,332.412 291.135,330.792 290.304,329.952 C288.634,328.65 286.964,327.347 285.295,326.045 C284.765,324.874 284.234,323.7 283.705,322.527 C282.969,321.829 282.234,321.13 281.499,320.433 C281.109,319.695 280.719,318.956 280.329,318.217 C279.51,317.781 278.69,317.344 277.869,316.908 C276.499,315.684 275.209,312.756 272.813,313.174 C272.719,313.383 272.624,313.591 272.529,313.8 C271.042,314.06 268.664,314.485 268.304,315.53 C268.272,315.644 268.24,315.759 268.208,315.875 C269.247,316.594 270.285,317.313 271.324,318.034 C271.729,318.851 272.134,319.667 272.54,320.485 C273.366,320.947 274.19,321.41 275.015,321.873 C275.582,322.821 276.15,323.769 276.717,324.717 C277.588,325.52 278.873,325.683 279.944,326.203 C281.305,327.184 282.668,328.167 284.03,329.149 C284.253,329.729 284.476,330.311 284.699,330.892 C285.168,331.208 285.639,331.523 286.108,331.837 C287.095,332.831 287.705,335.338 288.038,337.084 C287.7,337.803 287.012,338.597 286.119,338.929 C285.031,338.138 283.816,337.69 283.083,336.346 C282.808,335.64 282.532,334.933 282.258,334.226 C281.543,333.498 280.83,332.768 280.115,332.039 C279.568,331.282 279.496,330.355 278.93,329.746 C277.299,327.988 272.295,328.293 270.948,326.265 C270.269,325.246 270.08,323.777 269.247,323.012 C268.344,322.566 267.44,322.118 266.536,321.671 C266.235,321.105 265.935,320.54 265.633,319.973 C264.94,318.936 262.887,318.251 261.543,318.251 C259.695,318.251 257.458,320.411 256.101,321.274 C255.839,321.88 257.021,322.536 257.375,323.182 C258.919,326.008 261.919,325.495 264.896,326.185 C266.055,326.691 266.131,328.106 267.291,328.612 C268.073,329.33 269.49,329.449 270.439,329.905 C271.5,330.186 271.477,331.375 272.539,331.655 C275.141,332.583 277.105,334.332 278.75,336.71 C279.267,337.454 279.906,337.875 280.079,338.895 C280.773,339.111 281.467,339.328 282.163,339.544 C282.417,340.147 282.672,340.75 282.926,341.351 C283.305,341.747 283.949,341.464 284.289,342.061 C284.595,342.925 284.901,343.789 285.207,344.653 C285.875,345.359 287.203,345.143 288.013,345.65 C288.043,345.671 288.076,345.692 288.106,345.712 C288.413,346.304 288.72,346.897 289.026,347.489 C289.695,347.982 290.362,348.475 291.031,348.969 C291.85,350.346 290.405,351.544 291.19,353.096 C291.545,353.379 291.899,353.663 292.255,353.947 C292.498,354.769 292.741,355.59 292.984,356.413 C293.475,357.281 294.917,357.573 294.907,359.132 C294.759,359.624 294.61,360.115 294.463,360.606 C294.58,361.479 294.697,362.353 294.816,363.227 C294.494,364.078 294.173,364.93 293.851,365.781 C293.896,366.289 293.942,366.796 293.987,367.304 C293.828,368.114 293.375,368.715 293.08,369.449 C291.621,368.876 289.839,368.499 287.974,368.311 C288.663,367.379 289.443,366.52 289.082,365.579 C288.746,364.15 288.411,362.721 288.075,361.292 C287.465,360.543 286.855,359.792 286.246,359.042 C286.06,358.374 285.874,357.704 285.687,357.034 C285.037,355.939 284.387,354.844 283.737,353.749 C282.565,351.315 285.973,349.376 284.133,346.658 C283.532,345.769 282.272,345.675 281.645,344.784 C280.663,343.385 280.25,341.462 279.07,340.398 C277.846,339.296 275.68,339.511 274.447,338.455 C273.469,337.071 272.489,335.687 271.51,334.304 C270.477,333.319 268.676,333.451 267.388,332.833 C266.554,332.045 265.719,331.257 264.885,330.471 C264.326,330.187 263.584,330.417 262.893,330.292 C261.221,329.995 258.987,329.427 257.784,328.363 C254.415,329.064 255.999,328.322 253.864,327.504 C252.824,327.464 251.783,327.424 250.742,327.384 C250.007,328.197 248.924,329.213 248.632,330.328 C249.555,331.135 250.787,330.789 252.049,331.123 C253.798,331.587 255.129,333.106 257.047,333.318 C258.946,333.53 261.297,332.89 262.82,333.65 C263.924,334.2 266.53,336.547 267.264,337.585 C267.566,338.151 267.867,338.717 268.169,339.283 C268.796,339.567 269.422,339.852 270.05,340.136 C270.695,340.932 271.341,341.729 271.986,342.526 C272.625,342.864 273.262,343.2 273.899,343.536 C274.534,344.417 275.169,345.297 275.804,346.178 C276.399,346.441 276.995,346.705 277.591,346.967 C278.236,347.764 278.883,348.562 279.529,349.359 C280.161,349.805 280.791,350.251 281.423,350.698 C281.459,351.271 281.31,351.468 281.168,351.888 C279.301,352.292 276.623,352.536 275.537,351.449 C273.712,349.62 275.535,348.429 271.64,348.627 C271.115,348.015 271.063,346.766 270.548,345.989 C269.892,345.412 269.235,344.834 268.578,344.257 C267.442,342.988 266.851,341.21 265.64,340.107 C264.326,338.907 262.577,338.493 261.066,337.583 C259.13,336.416 259.249,334.763 256.082,336.282 C255.341,335.85 254.891,334.677 254.015,334.486 C253.126,334.662 252.237,334.837 251.347,335.011 C250.568,334.791 250.229,333.959 249.532,333.656 C248.894,333.591 248.256,333.527 247.617,333.463 C244.594,333.203 244.48,334.489 242.949,336.257 C242.99,336.467 243.032,336.676 243.073,336.885 C244.073,337.451 245.343,337.372 246.443,337.852 C246.776,338.167 247.111,338.482 247.445,338.796 C248.069,339.353 249.201,339.587 250.077,339.746 C251.223,339.953 253.345,339.137 254.519,339.524 C255.259,339.975 256.001,340.427 256.743,340.879 C257.976,341.153 259.43,340.787 260.49,341.285 C262.627,342.285 266.068,346.426 267.466,348.552 C267.699,349.049 267.934,349.548 268.167,350.045 C268.654,350.662 269.628,350.534 270.157,351.04 C270.63,351.924 271.103,352.811 271.577,353.696 C272.287,353.855 272.998,354.014 273.709,354.173 C274.397,354.635 275.087,355.097 275.776,355.56 C277.109,355.57 278.443,355.579 279.777,355.588 C280.046,356.402 280.19,357.662 280.694,358.178 C281.284,358.552 281.874,358.925 282.464,359.298 C282.775,360.189 283.085,361.078 283.398,361.968 L284.604,362.709 C284.816,363.375 285.028,364.04 285.24,364.705 C285.679,365.134 286.116,365.565 286.554,365.996 C287.129,366.905 286.489,367.67 285.839,368.274 C283.25,368.467 280.9,369.563 279.145,371.291 C278.395,370.703 277.644,370.115 276.895,369.527 C276.414,368.609 277.135,367.8 276.635,366.969 C276.261,366.58 275.886,366.193 275.509,365.804 C275.538,365.255 275.565,364.707 275.593,364.157 C275.031,363.507 274.467,362.856 273.904,362.207 C273.709,361.212 273.513,360.218 273.317,359.224 C272.416,357.726 269.974,358.156 269.074,356.716 C268.23,355.368 267.271,354.477 266.605,353.289 C266.08,352.142 264.473,351.905 263.946,350.758 C262.935,350.168 261.921,349.58 260.908,348.991 C260.235,348.345 259.897,347.057 259.064,346.664 C258.511,346.473 257.957,346.283 257.403,346.092 C256.613,345.426 256.392,344.267 255.416,343.875 C254.022,343.551 252.626,343.228 251.231,342.906 C250.661,342.909 250.09,342.913 249.521,342.916 C248.722,342.448 247.923,341.98 247.125,341.512 C246.319,341.563 245.513,341.612 244.708,341.662 C244.322,341.357 243.936,341.053 243.55,340.748 C242.694,340.347 241.431,340.35 240.177,340.597 C239.977,341.974 239.584,341.344 239.118,342.475 C239.075,342.808 239.033,343.143 238.99,343.478 C238.855,343.81 238.469,343.949 238.047,344.071 C238.004,344.27 237.961,344.469 237.919,344.667 C239.699,345.676 241.83,345.541 244.049,345.988 C245.205,346.22 246.067,347.039 247.105,347.424 C248.392,347.606 249.677,347.788 250.963,347.97 C252.139,348.243 258.877,351.321 259.595,352.059 C259.935,352.409 260.081,352.914 260.392,353.207 C260.381,353.427 260.37,353.646 260.359,353.867 C260.343,353.923 260.327,353.981 260.311,354.039 C257.336,354.307 256.482,352.342 254.419,351.448 C253.588,351.231 252.757,351.013 251.927,350.796 C250.903,350.292 249.88,349.787 248.855,349.281 C247.941,349.326 247.025,349.37 246.111,349.415 C245.542,349.146 244.972,348.876 244.402,348.609 C243.534,348.752 242.666,348.897 241.797,349.041 C239.947,348.724 238.803,347.28 236.736,346.939 C236.54,347.602 236.345,348.265 236.149,348.929 C235.571,349.722 234.994,350.515 234.416,351.308 C234.305,351.771 234.587,352.002 234.539,352.344 C235.828,352.421 236.599,351.484 237.556,351.099 C238.816,350.589 240.644,350.732 241.744,350.844 C244.106,351.249 246.47,351.654 248.833,352.058 C249.548,352.515 250.263,352.973 250.978,353.43 C252.039,353.575 253.1,353.718 254.161,353.863 L258.595,356.089 C260.28,356.705 262.294,356.607 263.831,357.422 C264.457,358.114 265.081,358.807 265.708,359.499 C267.378,361.089 269.249,362.47 270.87,364.19 C270.803,364.257 270.735,364.327 270.667,364.393 C268.672,365.157 267.924,363.268 266.591,362.75 C265.525,362.715 264.458,362.68 263.392,362.645 C262.196,362.151 261.553,360.375 260.577,359.531 C259.803,358.863 258.571,359.17 257.645,358.721 C256.962,358.149 256.278,357.577 255.595,357.004 C254.781,356.783 253.935,357.533 253.194,357.234 C252.108,356.415 251.023,355.594 249.938,354.776 C249.029,354.42 247.776,354.983 246.689,354.844 C245.478,354.349 244.267,353.854 243.055,353.358 C241.581,352.982 240.19,354.128 238.753,354.287 C238.355,354.202 237.958,354.119 237.562,354.033 C236.548,353.952 233.227,355.809 232.784,356.277 C232.616,356.799 232.447,357.323 232.278,357.844 C232.45,358.165 232.622,358.484 232.794,358.803 C234.121,358.922 235.449,359.042 236.777,359.161 C238.364,359.14 239.198,357.819 241.001,357.839 C242.915,358.306 244.828,358.771 246.74,359.238 C247.802,359.362 249.381,358.696 250.286,359.028 C251.006,359.511 251.727,359.996 252.447,360.479 C253.931,361 255.417,361.161 256.789,361.825 C257.764,362.639 258.739,363.453 259.715,364.266 C260.362,364.534 260.989,364.051 261.723,364.115 C262.606,364.458 263.489,364.8 264.372,365.143 C265.026,365.014 265.681,364.886 266.335,364.756 C268.138,364.966 269.109,366.496 271.492,366.106 C272.055,366.707 272.258,367.224 272.412,368.29 C270.643,369.347 268.746,368.323 267.392,368.054 C263.554,367.293 261.051,368.564 258.267,366.019 C257.386,365.214 257.018,363.691 255.921,363.218 C254.808,363.084 253.694,362.951 252.581,362.816 C249.224,361.874 246.249,360.805 242.343,360.51 C241.099,360.417 232.567,361.422 231.669,362.205 C231.177,362.756 230.973,364.887 231.063,365.749 C231.212,365.962 231.364,366.178 231.516,366.393 C233.357,366.809 234.949,364.159 237.5,364.074 C239.762,363.998 242.067,363.776 244.042,364.172 C244.914,364.461 245.787,364.752 246.659,365.042 C247.433,364.971 248.208,364.901 248.982,364.831 C249.551,365.098 250.121,365.368 250.69,365.635 C251.634,365.872 252.145,365.061 253.186,365.062 C255.181,365.065 257.268,366.294 258.292,367.807 C258.276,367.866 258.261,367.922 258.245,367.98 C256.493,368.053 254.74,368.126 252.988,368.2 C252.075,367.7 251.16,367.2 250.247,366.701 C249.112,366.734 247.977,366.767 246.843,366.799 C245.876,366.446 244.909,366.093 243.942,365.741 C243.015,365.708 242.639,366.433 242.088,366.675 C240.907,366.746 239.724,366.815 238.543,366.885 C234.322,367.003 229.64,368.83 231.355,372.622 C233.177,372.266 234.944,372.138 236.393,372.119 C237.508,371.845 238.622,371.572 239.737,371.297 C241.578,370.632 244.218,370.496 245.874,370.579 C248.592,370.715 250.743,371.917 253.479,371.935 C254.993,371.945 255.708,370.709 257.217,370.628 C258.944,370.56 260.67,370.493 262.396,370.425 C264.157,370.601 265.944,371.013 267.885,370.974 C269.423,370.645 270.962,370.314 272.5,369.984 C272.65,370.01 275.014,370.779 275.118,370.855 C276.014,371.513 276.237,372.77 277.228,373.293 C277.42,373.094 277.648,372.938 277.882,372.793 C277.057,373.981 276.459,375.349 276.174,376.852 C274.071,376.521 271.36,377.221 269.185,376.751 C266.391,375.537 263.597,374.319 260.802,373.103 C259.296,372.739 258.929,374.391 257.629,374.379 C256.553,374.021 255.477,373.662 254.4,373.303 C253.328,373.514 252.254,373.726 251.182,373.937 C249.832,373.778 248.558,373.092 247.027,373.124 C245.817,373.149 245.665,374.223 244.466,374.199 C243.526,373.976 242.584,373.753 241.645,373.531 C240.404,373.72 239.164,373.911 237.924,374.1 C237.656,374.534 237.389,374.967 237.121,375.4 C236.361,375.549 235.603,375.699 234.844,375.848 C233.023,376.649 230.904,378.274 232.007,380.484 C232.349,381.123 232.693,381.761 233.036,382.401 C233.63,382.557 234.438,381.706 235.047,381.434 C235.936,381.259 236.826,381.084 237.715,380.909 C238.606,380.327 239.497,379.743 240.388,379.16 C241.875,378.705 243.362,378.249 244.849,377.792 C245.581,377.513 246.314,377.232 247.046,376.953 C248.065,377.159 249.085,377.367 250.104,377.573 C252.603,377.828 255.319,377.702 257.666,377.878 C258.743,377.829 259.822,377.78 260.898,377.731 C261.332,377.535 261.446,376.994 262.156,377.077 C263.6,377.246 264.582,378.605 265.883,379.033 C267.019,379.406 268.667,378.294 269.854,378.497 C270.235,378.775 270.617,379.052 270.998,379.332 C271.797,379.255 272.598,379.178 273.399,379.102 C274.382,379.176 274.837,379.866 276.043,379.788 C276.114,380.45 276.257,381.103 276.455,381.738 C275.716,382.203 275.032,382.979 274.312,383.326 C272.523,384.188 270.484,383.702 268.928,383.733 C267.961,383.923 266.992,384.115 266.024,384.305 C265.33,384.088 264.634,383.873 263.939,383.656 C262.731,383.52 261.544,383.996 260.583,383.582 C260.014,383.178 259.445,382.774 258.876,382.37 C257.815,382.088 256.755,381.809 255.694,381.528 C255.135,381.175 254.49,381.82 253.931,381.468 C253.116,381.601 252.298,381.735 251.482,381.869 C250.327,381.662 249.172,381.454 248.017,381.246 C247.257,381.532 246.499,381.817 245.739,382.103 C245.201,382.126 244.661,382.152 244.123,382.175 L241.858,383.927 C240.833,384.1 239.806,384.276 238.782,384.451 C235.26,385.857 233.059,386.525 234.845,391.177 C235.208,392.192 235.746,391.215 236.108,392.232 C238.607,393.105 239.066,390.369 240.275,389.373 C241.165,388.925 242.055,388.479 242.945,388.031 C243.319,387.442 243.692,386.853 244.065,386.262 C244.787,386.065 245.509,385.869 246.231,385.672 C246.699,385.146 246.992,386.611 247.459,386.084 C248.92,385.245 250.608,385.887 251.821,385.878 C252.706,385.677 253.589,385.475 254.474,385.274 C255.519,385.793 256.236,386.267 257.814,386.084 C257.136,389.169 253.173,387.294 250.526,388.416 C250.192,388.644 249.855,388.874 249.52,389.103 C248.542,389.241 247.563,389.379 246.585,389.517 C246.155,390.092 245.724,390.665 245.293,391.241 C244.143,391.602 242.99,391.964 241.838,392.327 C241.232,392.652 238.473,396.331 238.294,397.102 C238.125,397.485 238.473,398.089 238.667,398.577 C238.927,398.661 239.188,398.747 239.45,398.831 C239.45,398.831 245.582,393.449 246.405,392.971 C246.477,393.338 244.294,396.518 244.366,396.884 C244.083,397.24 243.799,397.594 243.517,397.948 C243.356,398.797 243.197,399.644 243.038,400.489 C242.708,401.105 241.773,401.036 241.497,401.77 C241.85,402.326 242.204,402.882 242.558,403.438 C242.777,403.448 242.998,403.46 243.217,403.472 C243.548,402.809 243.88,402.144 244.211,401.48 C244.271,400.818 244.331,400.154 244.39,399.489 C245.071,398.948 245.753,398.405 246.435,397.864 C247.758,396.329 248.487,394.312 250.308,393.107 C251.766,392.139 253.956,391.981 255.805,391.208 C257.267,390.35 258.729,389.492 260.19,388.633 C261.189,388.599 262.188,388.566 263.188,388.533 C264.521,388.057 266.104,387.346 267.992,387.26 C269.127,387.091 270.263,386.921 271.398,386.753 C272.41,386.091 273.421,385.431 274.432,384.769 C275.075,384.724 275.719,384.679 276.362,384.633 C276.694,384.487 277.041,384.187 277.367,383.831 C277.899,384.762 278.569,385.601 279.353,386.299 C278.694,386.962 277.704,387.343 276.964,388.103 C276.25,388.838 276.284,390.163 275.372,390.782 C275.088,390.974 269.51,392.366 269.154,392.331 C268.652,392.132 268.15,391.931 267.649,391.731 C266.561,392.135 265.471,392.54 264.382,392.944 C262.971,392.678 261.56,392.413 260.149,392.148 C259.448,392.121 259.231,392.58 258.986,392.865 C258.481,392.411 257.334,392.91 256.632,392.921 C256.349,393.276 256.064,393.63 255.782,393.986 C254.379,394.18 252.976,394.375 251.575,394.569 C251.381,394.825 251.187,395.08 250.992,395.336 C250.246,395.737 249.3,395.656 248.792,396.176 C248.333,396.65 248.642,397.61 248.285,398.151 C247.762,398.526 247.237,398.901 246.713,399.276 C246.051,399.946 246.468,400.905 246.25,401.896 C245.708,404.352 244.105,403.467 245.435,406.865 C245.748,406.806 246.063,406.742 246.376,406.681 C247.302,405.03 248.227,403.381 249.152,401.733 C249.417,401.001 249.68,400.269 249.944,399.538 C250.687,398.783 252.539,398.756 253.51,398.182 C254.411,397.381 255.313,396.578 256.215,395.775 C256.932,395.688 257.649,395.602 258.366,395.515 C259.367,395.003 259.552,394.078 261.116,393.75 C261.55,394.018 261.983,394.287 262.417,394.554 C262.437,394.66 262.458,394.764 262.478,394.869 C261.699,395.5 260.312,395.694 259.414,396.288 C258.812,396.813 258.208,397.339 257.605,397.867 C256.763,398.14 255.919,398.415 255.077,398.688 C254.652,399.29 254.226,399.89 253.801,400.49 C252.979,400.869 252.156,401.25 251.334,401.628 C251.223,402.031 251.112,402.434 251,402.835 C250.592,403.243 250.183,403.65 249.773,404.056 C249.146,405.131 247.957,408.233 248.203,409.747 C249.047,410.307 249.863,410.94 251.181,410.792 C252.464,409.305 251.646,406.435 252.407,404.598 C253.272,402.511 254.58,402.347 256.701,401.144 C258.563,400.086 259.597,397.992 261.859,397.111 C262.729,396.771 263.053,397.305 263.915,397.194 C264.573,396.511 265.203,395.268 266.603,395.524 C266.986,395.595 267.39,395.96 267.951,395.749 C268.58,395.352 269.208,394.957 269.837,394.562 C271.371,393.878 273.143,394.693 274.166,395.013 C274.208,398.051 271.534,398.727 269.694,400.46 C268.935,401.176 268.924,402.372 267.71,402.807 C266.978,403.16 266.75,402.58 266.251,402.442 C265.034,402.105 260.019,402.326 258.375,403.015 C256.952,403.61 256.588,405.022 255.979,406.177 C255.488,407.11 254.382,407.647 253.651,408.428 C252.823,409.312 252.875,411.626 253.024,413.119 C253.344,413.218 253.663,413.319 253.981,413.418 C254.578,412.729 254.589,411.803 255.337,411.194 C255.546,411.154 255.756,411.113 255.965,411.072 C256.635,412.515 256.845,413.261 257.037,414.855 C257.5,415.146 257.965,415.435 258.43,415.723 C258.634,415.656 258.839,415.589 259.042,415.521 C259.136,414.279 258.284,413.477 258.269,412.005 C258.242,409.424 258.878,407.272 259.372,405.182 C260.444,404.641 261.646,404.386 262.762,404.598 C262.831,404.664 262.897,404.733 262.966,404.802 C262.724,405.229 262.482,405.658 262.241,406.086 C262.25,406.546 262.258,407.006 262.267,407.468 C262.052,407.752 261.836,408.04 261.622,408.327 C261.714,408.935 261.806,409.54 261.898,410.148 C261.771,410.864 261.248,411.352 261.249,412.232 C261.594,413.849 261.94,415.468 262.285,417.084 C262.898,417.651 263.634,417.952 264.526,418.11 C264.829,417.306 264.231,416.718 264.283,415.631 C264.321,414.821 265.003,414.423 264.635,413.28 C264.629,413.252 264.625,413.227 264.619,413.201 C264.614,413.174 264.609,413.148 264.604,413.122 C264.286,412.397 263.431,411.86 263.403,410.748 C263.376,409.703 264.052,409.15 264.227,408.305 C264.4,407.46 263.766,405.453 265.239,405.576 C265.972,405.638 266.547,406.348 267.511,406.353 C268.255,408.002 266.907,409.371 266.823,410.729 C267.071,411.848 267.318,412.968 267.566,414.088 C267.663,419.039 267.548,420.668 272.535,421.101 C272.639,420.944 272.745,420.786 272.85,420.631 C272.425,419.385 271.379,419.4 270.879,418.49 C270.197,417.248 271.345,416.131 270.702,414.693 C270.364,414.217 270.025,413.739 269.687,413.264 C269.156,412.086 269.713,405.781 270.088,404.948 C270.917,404.187 271.745,403.427 272.574,402.665 C272.727,402.2 272.88,401.734 273.034,401.269 C273.453,401.052 273.872,400.832 274.291,400.615 C274.852,399.728 274.665,398.451 275.335,397.638 C276.11,397.159 276.886,396.679 277.662,396.202 C278.452,395.424 278.06,393.182 278.976,392.11 C279.596,391.385 280.64,390.664 280.867,389.7 C280.857,388.967 280.85,388.235 280.841,387.502 C280.85,387.458 280.861,387.422 280.871,387.382 C281.335,387.641 281.823,387.857 282.334,388.018 C282.333,388.021 282.332,388.023 282.331,388.026 C282.449,388.763 282.566,389.5 282.684,390.239 C282.338,390.823 281.99,391.408 281.644,391.993 C281.457,392.844 281.272,393.696 281.087,394.548 C280.767,394.855 280.448,395.164 280.126,395.471 C280.183,396.167 280.238,396.863 280.293,397.559 C280.186,398.478 279.156,399.051 278.875,399.876 C278.851,400.723 278.827,401.569 278.803,402.418 C277.862,404.562 273.013,404.628 272.906,407.247 C273.061,408.168 273.213,409.09 273.368,410.011 C273.097,411.26 272.827,412.509 272.557,413.759 C272.837,414.489 273.117,415.224 273.396,415.956 C273.468,416.596 273.54,417.234 273.61,417.871 C273.967,418.802 274.832,419.328 275.41,419.964 C276.268,420.906 276.585,422.098 278.496,421.148 C278.819,420.96 278.785,420.91 278.875,420.586 C278.14,419.628 277.294,418.677 276.782,417.411 C276.696,416.557 276.609,415.706 276.523,414.852 C276.205,414.344 275.888,413.836 275.57,413.327 C275.723,413 275.875,412.669 276.028,412.34 C275.895,411.66 275.76,410.979 275.627,410.299 C275.72,409.27 276.225,408.347 276.342,406.897 C276.588,406.769 276.835,406.638 277.082,406.507 C277.431,406.646 277.627,406.747 277.849,407.09 C278.653,408.38 277.672,410.111 277.71,411.358 C277.923,412.022 278.135,412.687 278.348,413.352 C278.293,413.906 278.239,414.46 278.185,415.014 C278.216,415.982 278.959,415.996 279.231,416.602 C279.286,417.435 279.342,418.266 279.396,419.098 C279.412,419.177 279.428,419.255 279.444,419.334 C279.799,420.097 280.771,420.125 281.164,421.034 C281.529,421.165 281.761,421.239 282.325,421.13 C282.675,420.979 283.026,420.83 283.376,420.678 C283.435,419.605 282.721,419.61 282.394,418.996 C282.33,418.875 281.202,414.276 281.2,414.177 C281.24,413 281.28,411.822 281.32,410.646 C281.259,409.78 280.558,409.06 280.669,408.164 C280.77,407.354 281.431,406.81 281.429,405.814 C281.26,404.951 281.089,404.088 280.919,403.224 C280.98,402.467 281.602,402.053 281.788,401.423 C281.715,400.919 281.645,400.418 281.573,399.915 C281.83,399.43 282.088,398.943 282.346,398.459 C282.325,398.082 282.306,397.706 282.287,397.328 C282.69,396.759 283.095,396.191 283.5,395.623 C283.545,394.609 283.59,393.593 283.634,392.58 C284.053,391 284.962,389.972 285.17,388.304 C285.673,388.239 286.163,388.114 286.632,387.93 C286.608,388.526 286.567,389.098 286.562,389.638 C286.685,390.403 286.808,391.166 286.931,391.93 C286.599,392.729 286.268,393.53 285.936,394.328 C285.992,394.952 286.514,395.255 286.26,395.976 C285.841,397.167 284.891,398.108 284.571,399.406 C284.491,399.965 284.41,400.526 284.33,401.085 C284.444,401.523 284.558,401.964 284.671,402.404 C284.345,403.364 284.018,404.326 283.691,405.289 C283.492,406.588 284.62,407.478 284.637,408.852 C284.664,411.043 284.595,413.313 284.678,415.692 C284.739,417.448 285.865,418.489 286.093,419.98 C286.61,420.26 287.128,420.538 287.645,420.817 C287.765,420.603 287.886,420.389 288.006,420.174 C288.88,420.057 289.754,419.938 290.628,419.821 C290.707,419.806 290.785,419.792 290.864,419.775 C290.479,418.14 289.327,417.802 288.692,416.614 C288.522,415.614 288.354,414.615 288.183,413.617 C287.818,413.146 287.454,412.673 287.089,412.201 C286.594,410.819 288.047,409.881 287.885,408.376 C288.595,408.779 288.375,409.568 288.853,410.389 C289.186,410.701 289.52,411.016 289.854,411.332 C289.961,412.016 290.069,412.701 290.177,413.388 C290.558,413.665 290.938,413.943 291.319,414.223 C291.375,414.783 291.431,415.343 291.487,415.901 C291.6,417.484 293.372,418.247 294.444,418.5 C296.208,418.029 295.039,417.314 294.639,416.585 C294.509,415.932 294.38,415.276 294.251,414.622 C293.596,413.91 292.939,413.197 292.282,412.484 C291.627,411.489 291.949,410.236 291.429,408.984 C291.013,408.385 290.596,407.788 290.18,407.189 C289.41,405.872 289.42,404.163 289.299,402.715 C291.471,403.496 293.045,405.318 294.053,407.813 C294.352,409.194 294.651,410.577 294.951,411.959 C295.648,413.605 297.012,414.592 297.211,416.813 C297.519,416.998 297.827,417.181 298.135,417.365 C298.969,416.356 299.724,416.25 300.761,415.381 C300.987,415.167 300.979,414.996 301.03,414.676 C299.676,413.276 298.46,411.711 297.262,410.035 C297.479,409.613 297.694,409.19 297.911,408.766 C297.421,408.075 296.932,407.384 296.441,406.69 C296.313,406.23 296.747,405.868 296.414,405.31 C295.976,404.881 295.538,404.45 295.1,404.02 C294.82,403.286 294.54,402.555 294.26,401.822 C293.523,400.78 290.269,399.273 289.061,398.605 C289.038,397.023 289.968,396.094 290.078,394.654 C290.152,393.64 289.534,392.796 289.3,391.953 C289.261,390.928 289.222,389.903 289.183,388.877 C289.152,388.033 288.858,387.388 288.515,386.83 C290.283,385.412 291.516,383.185 291.716,380.89 C291.849,379.373 291.45,377.732 290.66,376.373 L288.493,377.634 C289.272,378.373 289.838,379.572 289.738,380.717 C289.485,383.611 286.731,386.28 284.216,384.829 C280.911,382.921 277.995,381.9 278.324,378.147 C278.746,373.317 283.184,372.919 287.434,370.526 C289.105,369.584 291.731,371.343 293.331,372.347 C295.693,373.83 298.069,377.053 301.744,378.2 C306.295,379.621 309.732,384.27 313.187,386.983 C317.524,390.39 320.338,392.645 321.27,393.479 C321.738,393.899 322.831,394.272 323.71,394.281 C324.24,394.712 324.748,395.053 325.157,395.168 C325.669,395.149 326.182,395.128 326.695,395.109 C327.865,395.26 329.037,395.41 330.207,395.56 C331.553,395.531 332.59,395.087 333.754,395.351 C334.813,395.903 335.873,396.456 336.934,397.009 C338.862,397.28 340.791,397.552 342.721,397.826 C344.032,398.121 344.398,399.131 345.444,399.654 C346.14,399.871 346.835,400.086 347.528,400.303 C350.195,401.535 350.475,407.318 353.344,407.884 C353.504,408.015 353.665,408.145 353.828,408.276 C353.682,408.359 353.536,408.443 353.39,408.526 C353.383,408.772 353.378,409.019 353.369,409.264 C355.849,411.509 364.014,411.646 367.865,409.589 C369.438,408.751 369.904,406.519 371.016,405.302 C372.044,404.582 373.072,403.863 374.099,403.145 C374.677,402.352 375.253,401.56 375.832,400.765 C376.798,400.14 377.76,399.515 378.724,398.893 C379.496,398.117 379.166,396.545 379.519,395.474 C379.809,395.009 380.099,394.544 380.386,394.08 C380.397,393.997 380.408,393.913 380.418,393.829 C380.086,393.575 379.929,393.402 379.494,393.277" fill="#FFFFFE"/>
    <path d="M321.686,311.891 C321.674,311.882 321.663,311.874 321.652,311.866 C321.6,311.869 321.627,311.878 321.686,311.891" fill="#FFFFFE"/>
    <path d="M321.686,311.891 C321.786,311.964 321.886,312.039 321.986,312.112 C322.019,312.067 322.052,312.018 322.082,311.983 C322.22,311.976 321.838,311.923 321.686,311.891" fill="#FFFFFE"/>
    <path d="M291.056,378.121 C290.902,379.875 289.356,381.171 287.603,381.018 C285.849,380.865 284.552,379.319 284.705,377.565 C284.858,375.811 286.405,374.514 288.158,374.667 C289.912,374.821 291.209,376.367 291.056,378.121" fill="#FFFFFE"/>
    <path d="M395.957,476.232 L215.954,476.214 L215.954,435.122 L395.957,435.141 z" fill="#00B0DE"/>
    <path d="M274.059,444.848 C273.835,443.711 273.451,442.272 271.547,442.272 C270.507,442.272 269.675,442.911 269.675,443.809 C269.675,446.207 275.019,445.872 275.019,449.295 C275.019,450.976 273.723,452.223 271.531,452.223 C269.883,452.223 268.603,451.615 267.979,451.327 L267.979,448.447 L268.395,448.447 C268.635,449.888 268.939,451.711 271.259,451.711 C272.619,451.711 273.643,450.976 273.643,449.839 C273.643,447.503 268.299,447.664 268.299,444.447 C268.299,442.815 269.563,441.76 271.595,441.76 C272.971,441.76 274.107,442.272 274.475,442.431 L274.475,444.848 z" fill="#FFFFFE"/>
    <path d="M279.931,451.776 C281.467,451.776 282.123,450.431 282.123,448.384 C282.123,446.623 281.387,444.992 279.931,444.992 C278.475,444.992 277.739,446.623 277.739,448.384 C277.739,450.431 278.395,451.776 279.931,451.776 M276.043,448.384 C276.043,446.176 277.435,444.543 279.931,444.543 C282.427,444.543 283.819,446.176 283.819,448.384 C283.819,450.992 282.363,452.223 279.931,452.223 C277.499,452.223 276.043,450.992 276.043,448.384" fill="#FFFFFE"/>
    <path d="M291.531,451.423 C290.699,451.839 289.787,452.223 288.555,452.223 C286.299,452.223 285.067,450.896 285.067,448.543 C285.067,446.335 286.363,444.543 288.811,444.543 C290.011,444.543 290.907,444.911 291.354,445.119 L291.354,446.896 L290.939,446.896 C290.779,446.111 290.331,445.056 289.035,445.056 C287.451,445.056 286.763,446.511 286.763,448.319 C286.763,450.368 287.387,451.711 289.003,451.711 C290.475,451.711 291.147,450.303 291.531,449.295 L291.947,449.295 z" fill="#FFFFFE"/>
    <path d="M294.155,442.016 C294.155,441.456 294.587,440.992 295.147,440.992 C295.707,440.992 296.139,441.456 296.139,442.016 C296.139,442.576 295.707,442.977 295.147,442.977 C294.587,442.977 294.155,442.576 294.155,442.016 M293.067,451.743 L294.475,451.359 L294.475,445.728 L292.747,445.664 L292.747,445.408 L296.043,444.543 L296.043,451.359 L297.451,451.743 L297.451,452 L293.067,452 z" fill="#FFFFFE"/>
    <path d="M303.563,447.088 C303.531,446.111 303.499,445.056 302.155,445.056 C301.083,445.056 300.427,446.015 300.17,447.391 z M305.066,451.423 C304.234,451.839 303.259,452.223 302.026,452.223 C299.659,452.223 298.378,450.896 298.378,448.607 C298.378,446.335 299.611,444.543 302.378,444.543 C305.307,444.543 305.323,446.527 305.323,447.599 L300.123,447.807 C300.091,448.127 300.075,448.4 300.075,448.576 C300.075,450.368 300.794,451.711 302.347,451.711 C303.947,451.711 304.603,450.239 305.002,449.231 L305.451,449.231 z" fill="#FFFFFE"/>
    <path d="M310.539,452.096 C310.203,452.176 309.723,452.223 309.37,452.223 C308.011,452.223 307.29,451.423 307.29,450.4 L307.29,445.664 L305.883,445.664 L305.883,445.408 L307.611,445.023 L308.49,442.464 L308.858,442.464 L308.858,445.023 L311.035,445.023 L311.035,445.664 L308.858,445.664 L308.858,449.855 C308.858,450.703 308.939,451.423 310.011,451.423 C310.539,451.423 311.019,451.072 311.37,450.815 L311.531,450.992 z" fill="#FFFFFE"/>
    <path d="M316.649,452.384 C316.154,453.647 315.481,455.456 313.531,455.456 C312.842,455.456 312.57,455.28 312.09,455.103 L312.09,453.247 L312.411,453.247 C312.49,453.839 312.73,454.815 313.882,454.815 C315.227,454.815 315.723,453.376 316.025,452.672 L312.794,445.408 L311.515,445.023 L311.515,444.769 L316.25,444.769 L316.25,445.023 L314.49,445.408 L316.857,450.688 L318.554,445.408 L317.146,445.023 L317.146,444.769 L320.603,444.769 L320.603,445.023 L319.354,445.408 z" fill="#FFFFFE"/>
    <path d="M329.499,451.776 C331.033,451.776 331.69,450.431 331.69,448.384 C331.69,446.623 330.954,444.992 329.499,444.992 C328.043,444.992 327.307,446.623 327.307,448.384 C327.307,450.431 327.962,451.776 329.499,451.776 M325.61,448.384 C325.61,446.176 327.003,444.543 329.499,444.543 C331.994,444.543 333.386,446.176 333.386,448.384 C333.386,450.992 331.931,452.223 329.499,452.223 C327.065,452.223 325.61,450.992 325.61,448.384" fill="#FFFFFE"/>
    <path d="M334.314,451.743 L335.723,451.359 L335.723,445.664 L334.314,445.664 L334.314,445.408 L335.723,444.927 C335.723,443.503 335.85,440.831 338.777,440.831 C339.449,440.831 340.17,441.039 340.745,441.28 L340.745,443.104 L340.329,443.104 C340.219,442.464 339.978,441.28 338.857,441.28 C337.61,441.28 337.29,442.352 337.29,443.631 L337.29,445.023 L339.434,445.023 L339.434,445.664 L337.29,445.664 L337.29,451.359 L339.082,451.743 L339.082,452 L334.314,452 z" fill="#FFFFFE"/>
    <path d="M234.41,461.848 C234.186,460.711 233.802,459.272 231.898,459.272 C230.858,459.272 230.026,459.911 230.026,460.809 C230.026,463.207 235.37,462.872 235.37,466.295 C235.37,467.976 234.074,469.223 231.882,469.223 C230.234,469.223 228.954,468.615 228.33,468.327 L228.33,465.447 L228.746,465.447 C228.986,466.888 229.291,468.711 231.61,468.711 C232.97,468.711 233.994,467.976 233.994,466.839 C233.994,464.503 228.65,464.664 228.65,461.447 C228.65,459.815 229.914,458.76 231.946,458.76 C233.322,458.76 234.458,459.272 234.826,459.431 L234.826,461.848 z" fill="#FFFFFE"/>
    <path d="M241.05,469.384 C240.554,470.647 239.882,472.456 237.93,472.456 C237.242,472.456 236.97,472.28 236.49,472.103 L236.49,470.247 L236.81,470.247 C236.89,470.839 237.13,471.815 238.282,471.815 C239.626,471.815 240.122,470.376 240.426,469.672 L237.194,462.408 L235.914,462.023 L235.914,461.769 L240.65,461.769 L240.65,462.023 L238.89,462.408 L241.258,467.688 L242.954,462.408 L241.546,462.023 L241.546,461.769 L245.002,461.769 L245.002,462.023 L243.754,462.408 z" fill="#FFFFFE"/>
    <path d="M250.045,463.896 C249.869,463.239 249.645,461.992 248.221,461.992 C247.453,461.992 246.877,462.359 246.877,462.951 C246.877,464.615 251.165,464.376 251.165,466.855 C251.165,468.168 250.109,469.223 248.301,469.223 C247.197,469.223 245.997,468.855 245.549,468.664 L245.549,466.168 L246.029,466.168 C246.285,467.047 246.429,468.776 248.205,468.776 C249.213,468.776 249.917,468.2 249.917,467.496 C249.917,465.831 245.629,466.056 245.629,463.607 C245.629,462.327 246.701,461.543 248.237,461.543 C249.229,461.543 250.045,461.864 250.525,462.039 L250.525,463.896 z" fill="#FFFFFE"/>
    <path d="M256.109,469.096 C255.773,469.176 255.293,469.223 254.941,469.223 C253.581,469.223 252.861,468.423 252.861,467.4 L252.861,462.664 L251.453,462.664 L251.453,462.408 L253.181,462.023 L254.061,459.464 L254.429,459.464 L254.429,462.023 L256.605,462.023 L256.605,462.664 L254.429,462.664 L254.429,466.855 C254.429,467.703 254.509,468.423 255.581,468.423 C256.109,468.423 256.589,468.072 256.941,467.815 L257.101,467.992 z" fill="#FFFFFE"/>
    <path d="M262.749,464.088 C262.717,463.111 262.685,462.056 261.341,462.056 C260.269,462.056 259.613,463.015 259.356,464.391 z M264.252,468.423 C263.42,468.839 262.445,469.223 261.212,469.223 C258.845,469.223 257.564,467.896 257.564,465.607 C257.564,463.335 258.796,461.543 261.564,461.543 C264.493,461.543 264.508,463.527 264.508,464.599 L259.309,464.807 C259.277,465.127 259.261,465.4 259.261,465.576 C259.261,467.368 259.98,468.711 261.533,468.711 C263.132,468.711 263.789,467.239 264.188,466.231 L264.637,466.231 z" fill="#FFFFFE"/>
    <path d="M265.869,468.743 L267.276,468.359 L267.276,462.728 L265.389,462.664 L265.389,462.408 L268.845,461.543 L268.845,463.511 L268.876,463.511 C269.245,462.984 270.285,461.543 271.964,461.543 C273.309,461.543 273.708,462.295 273.708,463.511 L273.741,463.511 C274.108,462.984 275.148,461.543 276.829,461.543 C278.172,461.543 278.572,462.295 278.572,463.655 L278.572,468.359 L279.98,468.743 L279.98,469 L275.756,469 L275.756,468.743 L277.004,468.359 L277.004,464.231 C277.004,463.319 277.004,462.599 276.061,462.599 C275.309,462.599 273.708,463.127 273.708,465.031 L273.708,468.359 L275.117,468.743 L275.117,469 L270.893,469 L270.893,468.743 L272.141,468.359 L272.141,464.231 C272.141,463.319 272.141,462.599 271.197,462.599 C270.444,462.599 268.845,463.127 268.845,465.031 L268.845,468.359 L270.093,468.743 L270.093,469 L265.869,469 z" fill="#FFFFFE"/>
    <path d="M285.548,465.015 C284.188,465.192 282.524,465.815 282.524,467.239 C282.524,467.911 282.893,468.423 283.484,468.423 C284.221,468.423 285.548,467.688 285.548,466.312 z M285.645,467.543 C285.196,468.072 284.188,469.223 282.588,469.223 C281.581,469.223 280.829,468.615 280.829,467.543 C280.829,465.207 283.548,465.047 285.548,464.568 L285.548,463.56 C285.548,462.68 285.261,462.056 284.316,462.056 C283.068,462.056 282.541,462.872 282.141,464.072 L281.756,464.072 L281.756,462.408 C282.477,462.104 283.692,461.543 285.004,461.543 C286.86,461.543 287.117,462.391 287.117,463.768 L287.117,468.072 L288.524,468.168 L288.524,468.423 L285.645,469.223 z" fill="#FFFFFE"/>
    <path d="M293.404,469.096 C293.068,469.176 292.588,469.223 292.236,469.223 C290.876,469.223 290.156,468.423 290.156,467.4 L290.156,462.664 L288.749,462.664 L288.749,462.408 L290.477,462.023 L291.356,459.464 L291.724,459.464 L291.724,462.023 L293.9,462.023 L293.9,462.664 L291.724,462.664 L291.724,466.855 C291.724,467.703 291.804,468.423 292.876,468.423 C293.404,468.423 293.884,468.072 294.236,467.815 L294.396,467.992 z" fill="#FFFFFE"/>
    <path d="M296.108,459.016 C296.108,458.456 296.54,457.992 297.1,457.992 C297.66,457.992 298.092,458.456 298.092,459.016 C298.092,459.576 297.66,459.977 297.1,459.977 C296.54,459.977 296.108,459.576 296.108,459.016 M295.02,468.743 L296.428,468.359 L296.428,462.728 L294.7,462.664 L294.7,462.408 L297.996,461.543 L297.996,468.359 L299.404,468.743 L299.404,469 L295.02,469 z" fill="#FFFFFE"/>
    <path d="M306.796,468.423 C305.964,468.839 305.052,469.223 303.82,469.223 C301.564,469.223 300.332,467.896 300.332,465.543 C300.332,463.335 301.628,461.543 304.076,461.543 C305.276,461.543 306.172,461.911 306.62,462.119 L306.62,463.896 L306.204,463.896 C306.044,463.111 305.596,462.056 304.3,462.056 C302.716,462.056 302.028,463.511 302.028,465.319 C302.028,467.368 302.652,468.711 304.268,468.711 C305.74,468.711 306.412,467.303 306.796,466.295 L307.212,466.295 z" fill="#FFFFFE"/>
    <path d="M315.757,468.359 C316.156,468.408 316.491,468.488 316.892,468.488 C318.94,468.488 319.819,467.639 319.819,466.376 C319.819,464.151 317.707,463.943 315.757,463.943 z M315.757,463.56 C317.579,463.56 319.244,463 319.244,461.192 C319.244,460.056 318.252,459.431 316.907,459.431 C316.477,459.431 316.156,459.496 315.757,459.56 z M312.332,468.743 L313.995,468.359 L313.995,459.623 L312.332,459.239 L312.332,458.984 L318.061,458.984 C319.66,458.984 321.132,459.576 321.132,461.223 C321.132,462.855 319.181,463.543 317.66,463.672 L317.66,463.703 C318.845,463.751 321.707,464.023 321.707,466.184 C321.707,468.007 320.236,469 317.483,469 L312.332,469 z" fill="#FFFFFE"/>
    <path d="M323.915,459.016 C323.915,458.456 324.349,457.992 324.907,457.992 C325.469,457.992 325.899,458.456 325.899,459.016 C325.899,459.576 325.469,459.977 324.907,459.977 C324.349,459.977 323.915,459.576 323.915,459.016 M322.828,468.743 L324.236,468.359 L324.236,462.728 L322.508,462.664 L322.508,462.408 L325.804,461.543 L325.804,468.359 L327.211,468.743 L327.211,469 L322.828,469 z" fill="#FFFFFE"/>
    <path d="M332.027,468.776 C333.564,468.776 334.22,467.431 334.22,465.384 C334.22,463.623 333.483,461.992 332.027,461.992 C330.572,461.992 329.836,463.623 329.836,465.384 C329.836,467.431 330.491,468.776 332.027,468.776 M328.141,465.384 C328.141,463.176 329.532,461.543 332.027,461.543 C334.523,461.543 335.915,463.176 335.915,465.384 C335.915,467.992 334.46,469.223 332.027,469.223 C329.596,469.223 328.141,467.992 328.141,465.384" fill="#FFFFFE"/>
    <path d="M337.036,468.743 L338.444,468.359 L338.444,458.823 L336.556,458.76 L336.556,458.503 L340.011,457.64 L340.011,468.359 L341.419,468.743 L341.419,469 L337.036,469 z" fill="#FFFFFE"/>
    <path d="M346.22,468.776 C347.756,468.776 348.411,467.431 348.411,465.384 C348.411,463.623 347.675,461.992 346.22,461.992 C344.764,461.992 344.027,463.623 344.027,465.384 C344.027,467.431 344.683,468.776 346.22,468.776 M342.332,465.384 C342.332,463.176 343.724,461.543 346.22,461.543 C348.715,461.543 350.106,463.176 350.106,465.384 C350.106,467.992 348.652,469.223 346.22,469.223 C343.787,469.223 342.332,467.992 342.332,465.384" fill="#FFFFFE"/>
    <path d="M354.57,466.072 C355.707,466.072 356.027,464.904 356.027,464.023 C356.027,463.16 355.787,461.992 354.555,461.992 C353.563,461.992 353.115,462.968 353.115,464.104 C353.115,465.192 353.516,466.072 354.57,466.072 M354.828,471.943 C356.348,471.943 357.467,471.207 357.467,470.231 C357.467,469.447 356.956,469.384 356.011,469.384 C354.875,469.384 354.106,469.368 353.499,469.303 C353.052,469.672 352.54,469.992 352.54,470.631 C352.54,471.496 353.628,471.943 354.828,471.943 M353.036,467.56 C353.179,467.88 353.707,468.023 354.587,468.023 C355.371,468.023 356.172,467.943 356.956,467.943 C358.124,467.943 358.812,468.439 358.812,469.543 C358.812,471.271 357.036,472.456 354.507,472.456 C351.898,472.456 351.036,471.271 351.036,470.151 L352.891,469.192 C352.044,468.904 351.563,468.28 351.467,467.415 C352.332,467.415 352.956,467.08 353.499,466.456 C352.859,466.312 351.419,465.799 351.419,464.056 C351.419,462.599 352.636,461.543 354.555,461.543 C355.402,461.543 355.867,461.688 356.332,461.831 C356.812,461.977 357.291,462.119 358.187,462.119 C358.411,462.119 358.731,462.088 358.956,462.056 L358.956,462.855 L357.482,462.855 C357.611,463.192 357.724,463.639 357.724,464.023 C357.724,466.472 355.291,466.519 354.044,466.519 z" fill="#FFFFFE"/>
    <path d="M361.035,459.016 C361.035,458.456 361.467,457.992 362.027,457.992 C362.587,457.992 363.02,458.456 363.02,459.016 C363.02,459.576 362.587,459.977 362.027,459.977 C361.467,459.977 361.035,459.576 361.035,459.016 M359.947,468.743 L361.355,468.359 L361.355,462.728 L359.628,462.664 L359.628,462.408 L362.924,461.543 L362.924,468.359 L364.331,468.743 L364.331,469 L359.947,469 z" fill="#FFFFFE"/>
    <path d="M369.866,463.896 C369.69,463.239 369.467,461.992 368.043,461.992 C367.274,461.992 366.698,462.359 366.698,462.951 C366.698,464.615 370.986,464.376 370.986,466.855 C370.986,468.168 369.932,469.223 368.123,469.223 C367.02,469.223 365.819,468.855 365.37,468.664 L365.37,466.168 L365.852,466.168 C366.106,467.047 366.25,468.776 368.027,468.776 C369.035,468.776 369.739,468.2 369.739,467.496 C369.739,465.831 365.451,466.056 365.451,463.607 C365.451,462.327 366.523,461.543 368.059,461.543 C369.052,461.543 369.866,461.864 370.348,462.039 L370.348,463.896 z" fill="#FFFFFE"/>
    <path d="M375.932,469.096 C375.595,469.176 375.115,469.223 374.764,469.223 C373.402,469.223 372.683,468.423 372.683,467.4 L372.683,462.664 L371.274,462.664 L371.274,462.408 L373.003,462.023 L373.883,459.464 L374.25,459.464 L374.25,462.023 L376.428,462.023 L376.428,462.664 L374.25,462.664 L374.25,466.855 C374.25,467.703 374.331,468.423 375.402,468.423 C375.932,468.423 376.411,468.072 376.764,467.815 L376.923,467.992 z" fill="#FFFFFE"/>
    <path d="M381.994,463.896 C381.819,463.239 381.595,461.992 380.17,461.992 C379.402,461.992 378.827,462.359 378.827,462.951 C378.827,464.615 383.115,464.376 383.115,466.855 C383.115,468.168 382.059,469.223 380.25,469.223 C379.147,469.223 377.947,468.855 377.499,468.664 L377.499,466.168 L377.979,466.168 C378.235,467.047 378.378,468.776 380.154,468.776 C381.162,468.776 381.866,468.2 381.866,467.496 C381.866,465.831 377.578,466.056 377.578,463.607 C377.578,462.327 378.65,461.543 380.187,461.543 C381.178,461.543 381.994,461.864 382.475,462.039 L382.475,463.896 z" fill="#FFFFFE"/>
  </g>
  <defs/>
</svg>
